<svg class="svg-icon" style="width: 1em; height: 1em;vertical-align: middle;fill: currentColor;overflow: hidden;" viewBox="0 0 1024 1024" version="1.1" xmlns="http://www.w3.org/2000/svg"><path d="M549.973333 770.56a42.666667 42.666667 0 0 0-54.613333 25.6l-31.146667 85.333333a42.666667 42.666667 0 0 0 25.6 54.613334 42.666667 42.666667 0 0 0 14.506667 2.56 42.666667 42.666667 0 0 0 40.106667-28.16l31.146666-85.333334a42.666667 42.666667 0 0 0-25.6-54.613333z m-170.666666 0a42.666667 42.666667 0 0 0-54.613334 25.6l-31.146666 85.333333a42.666667 42.666667 0 0 0 25.6 54.613334 42.666667 42.666667 0 0 0 14.506666 2.56 42.666667 42.666667 0 0 0 40.106667-28.16l31.146667-85.333334a42.666667 42.666667 0 0 0-25.6-54.613333z m0-298.666667a42.666667 42.666667 0 0 0-54.613334 25.6l-46.933333 128A42.666667 42.666667 0 0 0 317.866667 682.666667a42.666667 42.666667 0 0 0 40.106666-28.16l46.933334-128a42.666667 42.666667 0 0 0-25.6-54.613334z m170.666666 0a42.666667 42.666667 0 0 0-54.613333 25.6l-46.933333 128a42.666667 42.666667 0 0 0 40.106666 57.173334 42.666667 42.666667 0 0 0 40.106667-28.16l46.933333-128a42.666667 42.666667 0 0 0-25.6-54.613334z m235.946667-206.506666A298.666667 298.666667 0 0 0 215.893333 346.026667 170.666667 170.666667 0 0 0 85.333333 512a170.666667 170.666667 0 0 0 57.173334 128 42.666667 42.666667 0 1 0 56.32-64A85.333333 85.333333 0 0 1 170.666667 512a85.333333 85.333333 0 0 1 85.333333-85.333333 42.666667 42.666667 0 0 0 42.666667-42.666667 213.333333 213.333333 0 0 1 415.146666-68.693333 42.666667 42.666667 0 0 0 33.28 28.586666A128 128 0 0 1 853.333333 469.333333a124.16 124.16 0 0 1-31.573333 85.333334 42.666667 42.666667 0 0 0 63.146667 57.173333 213.333333 213.333333 0 0 0-98.986667-344.746667z m-65.28 505.173333a42.666667 42.666667 0 0 0-54.613333 25.6l-31.146667 85.333333a42.666667 42.666667 0 0 0 25.6 54.613334 42.666667 42.666667 0 0 0 14.506667 2.56 42.666667 42.666667 0 0 0 40.106666-28.16l31.146667-85.333334a42.666667 42.666667 0 0 0-25.6-54.613333z m0-298.666667a42.666667 42.666667 0 0 0-54.613333 25.6l-46.933334 128a42.666667 42.666667 0 0 0 40.106667 57.173334 42.666667 42.666667 0 0 0 40.106667-28.16l46.933333-128a42.666667 42.666667 0 0 0-25.6-54.613334z"  /></svg>